<svg width="20" height="20" viewBox="0 0 20 20" fill="none" xmlns="http://www.w3.org/2000/svg">
<path fill-rule="evenodd" clip-rule="evenodd" d="M8.81928 0C3.95638 0 0 3.94556 0 8.79522C0 13.6449 3.95642 17.5904 8.81928 17.5904C10.987 17.5904 12.9746 16.8064 14.5119 15.5078L18.7672 19.7415C18.9084 19.8818 19.0925 19.9519 19.2771 19.9519C19.4629 19.9519 19.6484 19.8808 19.7896 19.7389C20.0711 19.4557 20.0699 18.9981 19.787 18.7165L15.5369 14.488C16.8471 12.9527 17.6386 10.9644 17.6386 8.79522C17.6386 3.94556 13.6822 0 8.81928 0ZM14.078 13.9419C15.3853 12.615 16.1927 10.7973 16.1927 8.79518C16.1927 4.74263 12.885 1.44575 8.81919 1.44575C4.7534 1.44575 1.44569 4.74263 1.44569 8.79518C1.44569 12.8475 4.7534 16.1446 8.81919 16.1446C10.8208 16.1446 12.6386 15.3455 13.9685 14.0507C13.9838 14.0319 14.0001 14.0137 14.0175 13.9962C14.0369 13.9768 14.0571 13.9586 14.078 13.9419Z" fill="#0079FF"/>
</svg>
